<?xml version="1.0" standalone="no"?>
<!DOCTYPE svg PUBLIC "-//W3C//DTD SVG 20010904//EN"
 "http://www.w3.org/TR/2001/REC-SVG-20010904/DTD/svg10.dtd">
<svg version="1.0" xmlns="http://www.w3.org/2000/svg"
 width="512.000000pt" height="512.000000pt" viewBox="0 0 512.000000 512.000000"
 preserveAspectRatio="xMidYMid meet">

<g transform="translate(0.000000,512.000000) scale(0.100000,-0.100000)"
fill="#000000" stroke="none">
<path d="M2480 4974 c-126 -24 -230 -81 -325 -178 -132 -134 -180 -257 -173
-452 l3 -112 -100 -16 c-172 -29 -171 -28 -152 -322 8 -121 13 -222 11 -225
-2 -4 -144 -9 -316 -13 -172 -4 -329 -9 -349 -12 l-36 -5 -82 186 -82 186 25
30 c22 26 46 85 46 114 0 58 -53 139 -106 161 -17 7 -178 27 -358 44 -349 33
-364 33 -422 -12 -34 -27 -63 -92 -64 -141 0 -48 31 -109 69 -136 40 -29 86
-36 416 -66 160 -15 293 -30 297 -34 4 -3 146 -325 316 -716 496 -1139 552
-1265 577 -1315 32 -64 122 -144 190 -169 33 -12 80 -21 113 -21 l56 0 -56
-58 c-31 -31 -130 -164 -221 -295 -183 -264 -199 -298 -177 -385 15 -64 55
-118 109 -150 37 -21 60 -27 133 -30 l89 -5 -24 -26 c-103 -111 -132 -267 -77
-415 30 -79 113 -166 198 -208 62 -31 74 -33 167 -33 93 0 105 2 167 33 85 42
148 105 190 190 30 61 33 74 33 162 -1 114 -24 184 -86 254 l-41 46 592 0 592
0 -35 -40 c-172 -190 -107 -495 131 -612 61 -30 74 -33 162 -33 131 1 192 25
281 114 87 87 112 149 113 276 1 81 -2 97 -30 155 -17 36 -46 83 -64 103 l-32
37 101 0 c82 0 109 4 140 20 118 60 130 206 24 287 l-36 28 -1179 5 -1178 5
73 105 c39 58 85 122 101 143 35 46 130 110 193 131 27 8 228 45 448 81 1322
215 1244 201 1284 228 51 34 74 84 69 150 -3 29 -8 59 -12 68 -6 14 23 21 222
53 127 20 247 42 267 47 49 14 117 83 133 135 9 31 12 200 12 665 0 587 -2
626 -19 665 -10 23 -34 52 -52 65 -33 23 -40 24 -211 24 l-177 0 -32 130 c-42
173 -47 178 -163 173 l-88 -3 -17 66 c-34 134 -126 243 -259 307 -61 29 -87
35 -162 40 -52 3 -108 0 -135 -7 -36 -9 -54 -9 -79 0 -26 9 -52 8 -126 -4 -52
-9 -96 -15 -98 -13 -2 2 -10 35 -17 73 -8 37 -32 104 -54 148 -101 203 -290
325 -516 331 -55 1 -111 0 -125 -2z m252 -114 c112 -34 225 -122 286 -221 28
-45 58 -133 67 -192 7 -44 7 -44 -27 -50 -18 -3 -242 -38 -497 -78 -353 -54
-465 -68 -471 -59 -28 45 -17 205 20 303 55 144 199 271 347 306 71 17 206 12
275 -9z m975 -525 c113 -34 208 -130 244 -248 12 -37 19 -70 16 -73 -5 -5
-379 -66 -382 -62 -1 2 -21 84 -45 183 -24 99 -45 185 -47 192 -3 6 4 13 14
16 41 11 153 6 200 -8z m-459 -34 c-28 -37 -38 -38 -38 -7 0 23 5 27 53 35 5
0 -2 -12 -15 -28z m-128 -78 c7 -43 13 -96 12 -118 -1 -22 -2 -82 -3 -132 -3
-103 2 -97 -87 -108 -78 -10 -105 -37 -112 -111 l-5 -59 -533 -14 c-292 -8
-535 -11 -539 -8 -8 9 -36 418 -28 425 8 8 168 32 174 26 3 -3 11 -39 18 -80
13 -83 24 -104 59 -104 43 0 54 34 42 123 -6 42 -9 79 -7 81 5 5 941 153 975
155 18 1 22 -9 34 -76z m-2615 31 c294 -26 319 -32 331 -78 16 -64 -30 -95
-128 -88 -38 2 -68 8 -68 13 0 5 -10 7 -22 4 -25 -6 -443 30 -471 41 -10 3
-24 19 -33 35 -13 26 -13 32 1 59 19 37 43 51 80 45 17 -3 156 -16 310 -31z
m2934 -131 c23 -89 41 -168 41 -176 0 -9 -32 -18 -107 -30 -60 -10 -115 -17
-124 -17 -38 0 -27 155 18 247 23 47 118 152 128 141 2 -2 22 -76 44 -165z
m767 -220 c5 -21 9 -45 10 -53 1 -8 4 -22 7 -30 3 -8 10 -29 15 -47 l11 -32
-42 -5 c-76 -9 -931 -26 -938 -18 -4 4 -9 23 -11 42 l-3 34 105 17 c161 26
373 57 390 58 8 0 62 9 120 20 69 12 107 15 111 9 4 -6 10 -32 13 -59 8 -59
38 -85 78 -70 33 13 39 30 28 93 -9 60 -7 65 35 71 62 9 62 8 71 -30z m-1054
-164 c4 -26 2 -30 -14 -26 -10 3 -18 1 -18 -4 0 -5 -17 -9 -39 -9 -35 0 -39 3
-43 30 -5 31 3 35 78 39 28 1 32 -2 36 -30z m1538 -119 c19 -19 20 -33 20
-427 0 -223 -2 -404 -4 -402 -2 2 -63 141 -136 309 -91 210 -142 339 -161 415
-16 61 -29 111 -29 112 -1 6 61 10 168 12 110 1 124 -1 142 -19z m-449 -30
c10 -19 15 -38 12 -42 -2 -5 0 -8 5 -8 7 0 42 -74 47 -100 1 -3 9 -21 18 -40
22 -47 149 -570 143 -587 -3 -8 -2 -12 2 -9 14 8 98 -352 85 -365 -6 -6 -30
-13 -53 -16 -38 -5 -43 -4 -37 11 4 9 3 15 -2 12 -6 -4 -193 410 -197 434 0 3
-15 36 -32 74 -34 74 -39 91 -20 80 7 -4 8 -3 4 5 -4 6 -11 9 -16 6 -11 -7
-22 24 -13 38 3 7 2 9 -2 5 -9 -9 -96 182 -89 194 3 5 1 8 -4 8 -4 0 -19 26
-32 58 -13 31 -37 86 -53 122 -16 36 -38 84 -48 107 l-18 42 92 4 c187 7 190
6 208 -33z m-414 18 c23 -37 112 -262 106 -271 -3 -5 -2 -7 4 -4 5 3 21 -22
36 -56 38 -90 84 -197 181 -420 48 -109 84 -203 80 -210 -4 -6 -4 -9 1 -5 11
10 37 -42 30 -59 -2 -8 -1 -12 4 -9 7 5 81 -151 81 -172 0 -10 -168 -34 -181
-26 -5 3 -9 1 -9 -4 0 -6 -17 -12 -38 -14 -38 -3 -38 -2 -62 52 -12 30 -41 96
-63 145 -50 115 -59 137 -49 131 4 -2 8 4 8 14 0 13 -4 16 -11 10 -8 -7 -20
11 -39 56 -22 55 -25 69 -14 83 11 14 11 14 -3 3 -14 -11 -22 2 -68 107 -29
70 -48 128 -45 138 4 12 3 14 -3 6 -6 -9 -25 24 -58 100 -26 61 -48 118 -48
125 0 6 -4 12 -8 12 -7 0 -33 64 -34 85 -1 6 -9 22 -19 37 -10 15 -14 33 -10
39 5 8 3 9 -6 4 -10 -6 -12 -4 -6 11 4 10 4 15 0 11 -6 -5 -44 63 -44 79 0 2
57 5 128 7 70 1 132 4 139 5 6 1 15 -4 20 -10z m-356 -117 c27 -62 46 -118 43
-123 -4 -6 -3 -8 3 -5 5 3 15 -11 23 -31 7 -20 26 -65 42 -100 16 -34 26 -67
22 -74 -4 -6 -3 -8 3 -5 6 4 34 -48 66 -126 31 -72 95 -220 142 -327 47 -107
86 -202 88 -210 1 -8 4 -17 7 -20 3 -3 18 -32 32 -65 32 -71 41 -65 -120 -89
-105 -16 -126 -16 -127 2 -1 4 -9 22 -18 40 -10 18 -15 38 -11 44 4 6 3 8 -2
5 -12 -7 -97 191 -88 205 4 6 2 8 -3 5 -13 -8 -36 50 -26 66 3 5 2 7 -4 4 -12
-8 -76 140 -67 155 5 7 2 8 -6 3 -10 -6 -12 -4 -7 9 4 9 3 15 -1 12 -8 -4
-177 378 -177 399 0 6 -6 16 -13 24 -7 7 -10 21 -7 29 3 9 3 13 -1 9 -6 -6
-124 246 -124 265 0 6 216 16 273 13 5 0 30 -51 58 -114z m-513 -201 c10 -143
15 -256 11 -252 -4 5 -214 485 -236 539 -4 9 22 13 99 15 101 3 103 3 106 -20
2 -13 11 -139 20 -282z m-152 -137 l191 -438 17 -254 c9 -140 19 -258 21 -261
5 -8 -43 -20 -79 -20 -18 0 -52 71 -260 548 -132 301 -268 612 -303 691 -34
79 -63 147 -63 152 0 5 53 10 118 12 64 1 129 4 143 5 24 2 33 -16 215 -435z
m-529 275 c34 -79 172 -395 306 -703 205 -470 242 -561 228 -566 -37 -14 -253
-41 -260 -33 -4 5 -147 329 -316 719 -169 391 -309 713 -312 718 -2 4 63 7
144 7 l148 0 62 -142z m-523 90 c9 -72 39 -569 34 -573 -2 -2 -39 78 -83 178
-43 100 -102 237 -132 303 -29 67 -53 125 -53 128 0 3 51 6 114 6 l115 0 5
-42z m-327 -5 c8 -21 98 -229 200 -462 l184 -425 20 -290 c19 -269 22 -294 44
-332 34 -58 85 -79 170 -70 l66 7 15 -37 c8 -20 13 -38 11 -41 -12 -11 -139
-25 -178 -19 -63 9 -143 58 -177 108 -15 24 -47 86 -69 138 -22 52 -172 397
-332 766 -160 370 -291 677 -291 683 0 8 49 11 161 11 l160 0 16 -37z m1647
-46 c8 -21 11 -35 6 -32 -6 3 -7 -1 -4 -9 3 -9 9 -14 13 -12 7 5 94 -189 94
-211 0 -7 4 -13 8 -13 11 0 30 -61 22 -73 -3 -5 -1 -7 4 -4 6 4 23 -24 41 -66
16 -39 46 -110 67 -157 90 -206 93 -216 82 -236 -9 -16 -8 -17 5 -7 12 11 19
3 41 -53 15 -36 24 -70 21 -76 -4 -6 -3 -8 2 -5 6 3 33 -47 61 -111 42 -96 49
-118 37 -125 -8 -5 -23 -5 -34 -2 -11 4 -20 2 -20 -3 0 -9 -113 -26 -174 -27
-28 0 -32 6 -76 110 -26 61 -68 159 -94 218 -26 59 -43 113 -40 119 4 6 3 8
-4 4 -24 -15 -36 91 -68 639 -2 50 -7 110 -10 135 -7 51 -3 51 20 -3z m-1076
-332 c72 -165 202 -464 290 -665 133 -305 157 -366 143 -371 -36 -14 -253 -41
-260 -33 -8 9 -34 68 -181 409 l-78 180 -21 350 c-12 193 -24 370 -27 395 -3
25 -4 43 -1 40 3 -3 63 -140 135 -305z m2710 -688 l4 -107 -34 -34 c-26 -26
-45 -35 -88 -41 -45 -6 -56 -5 -67 11 -22 30 -15 41 28 48 48 8 104 57 115
102 5 19 -5 77 -31 184 -21 85 -40 164 -42 175 -2 11 22 -36 53 -105 57 -124
58 -126 62 -233z m-1533 -146 c25 -59 30 -81 20 -81 -7 0 -21 -3 -31 -7 -14
-5 -16 -3 -11 11 4 10 3 15 -3 11 -14 -9 -18 8 -23 99 -5 87 -3 86 48 -33z
m-1170 -119 c62 -141 62 -151 8 -152 -37 0 -63 34 -64 83 0 23 -4 81 -7 129
-4 48 -4 84 -1 80 4 -4 33 -67 64 -140z m2410 88 c17 -34 36 -26 -156 -59
l-107 -18 -15 33 -16 32 122 20 c160 26 154 27 172 -8z m-385 -49 c22 -42 14
-46 -102 -65 -62 -9 -123 -20 -136 -23 -18 -4 -25 1 -36 28 l-14 34 126 22
c160 27 149 26 162 4z m-380 -67 c6 -14 10 -29 10 -33 0 -5 -48 -16 -107 -25
-60 -10 -120 -20 -135 -23 -22 -4 -29 0 -43 27 -9 17 -15 33 -13 35 4 5 224
42 256 44 16 1 25 -7 32 -25z m-380 -64 c7 -17 11 -32 9 -35 -5 -4 -239 -45
-260 -45 -13 0 -44 59 -36 67 4 4 225 40 253 42 15 1 25 -8 34 -29z m802 -37
c24 -22 23 -75 -2 -98 -20 -18 -41 -22 -1310 -230 -190 -31 -373 -65 -408 -76
-76 -25 -168 -85 -219 -143 -21 -24 -89 -119 -152 -211 -102 -150 -113 -170
-105 -194 l9 -26 1234 -5 1233 -5 19 -24 c26 -31 24 -57 -6 -87 l-24 -24
-1296 2 -1297 3 -34 37 c-28 31 -34 45 -34 83 0 48 11 67 241 396 131 187 238
279 384 327 33 11 353 68 710 127 358 59 724 119 815 135 199 34 218 35 242
13z m-1182 -23 c7 -17 10 -33 7 -37 -8 -7 -212 -43 -249 -43 -20 0 -28 7 -37
32 -6 17 -9 33 -7 35 5 6 212 40 247 42 21 1 29 -6 39 -29z m-382 -62 c6 -18
8 -35 4 -39 -4 -3 -58 -14 -120 -23 -63 -10 -120 -20 -128 -23 -14 -5 -53 61
-42 73 7 6 209 42 248 43 20 1 28 -6 38 -31z m-312 -1379 c-12 19 2 12 29 -14
14 -14 25 -33 25 -41 0 -21 -54 -74 -75 -74 -24 0 -65 46 -65 74 0 35 45 69
72 55 15 -8 19 -8 14 0z m1732 -1 c15 -15 16 -31 0 -22 -7 4 -8 3 -4 -5 4 -6
11 -9 16 -6 14 9 20 -24 8 -49 -6 -14 -24 -30 -40 -37 -25 -10 -33 -9 -56 8
-31 23 -39 71 -14 91 9 6 12 12 6 12 -5 0 -2 5 6 10 21 13 64 12 78 -2z"/>
<path d="M4382 2660 c0 -14 2 -19 5 -12 2 6 2 18 0 25 -3 6 -5 1 -5 -13z"/>
<path d="M3611 3094 c0 -11 3 -14 6 -6 3 7 2 16 -1 19 -3 4 -6 -2 -5 -13z"/>
<path d="M3800 2661 c0 -6 4 -13 10 -16 6 -3 7 1 4 9 -7 18 -14 21 -14 7z"/>
<path d="M3164 2269 c-3 -6 2 -18 12 -27 17 -16 17 -16 5 0 -7 9 -10 22 -6 28
3 5 4 10 1 10 -3 0 -8 -5 -12 -11z"/>
</g>
</svg>
